<?xml version="1.0" encoding="utf-8"?>
<!-- Generator: Adobe Illustrator 16.0.0, SVG Export Plug-In . SVG Version: 6.00 Build 0)  -->
<!DOCTYPE svg PUBLIC "-//W3C//DTD SVG 1.1//EN" "http://www.w3.org/Graphics/SVG/1.1/DTD/svg11.dtd">
<svg version="1.1" id="Layer_1" xmlns="http://www.w3.org/2000/svg" xmlns:xlink="http://www.w3.org/1999/xlink" x="0px" y="0px"
	 width="138.135px" height="70.666px" viewBox="0 0 138.135 70.666" enable-background="new 0 0 138.135 70.666"
	 xml:space="preserve">
<g>
	<defs>
		<path id="SVGID_1_" d="M32.911,7.712L30.335,11.2l-0.002,0.007l0.077,23.385l22.144,7.177l4.42-1.662
			c0,0,10.001-13.761,13.308-18.305c3.569-4.901,6.815-10.638,12.68-13.015c4.146-1.635,8.791-1.438,12.786,0.542
			c4.133,2.276,6.414,6.627,7.201,11.245c0.103,1.031,0.103,2.071,0,3.104c-0.011,0.068-0.011,0.132-0.022,0.2
			c0,0.033-0.008,0.055-0.008,0.089c-0.015,0.033-0.015,0.078-0.024,0.11l-0.034,0.203c-1.204,6.562-6.217,11.53-12.914,12.178
			c-6.798,0.646-13.519-6.054-16.041-10.017c-0.029-0.045-0.121-0.175-0.121-0.175l-1.681,0.492l-1.866,2.531v0.004l-0.007,0.003
			l0.011,0.017c0.821,3.294,3.19,6.088,5.776,8.193c4.502,3.691,10.409,5.188,16.129,4.086c0.49-0.104,0.976-0.235,1.457-0.387
			c-0.092,0.037-0.182,0.073-0.273,0.109c8.766-2.359,14.887-10.275,14.954-19.356c-0.002-0.998-0.087-1.997-0.255-2.979
			c-0.023-0.113-0.034-0.235-0.066-0.347c-0.104-0.702-0.257-1.397-0.457-2.075c-0.104-0.347-0.203-0.682-0.314-1.016
			c-0.112-0.336-0.234-0.669-0.37-1.005c-1.317-3.287-3.514-6.148-6.348-8.272c-0.395-0.3-0.79-0.58-1.207-0.847
			c-0.413-0.269-0.828-0.514-1.263-0.749c0-0.01-1.419-0.75-2.187-1.049c-1.531-0.608-3.127-1.047-4.753-1.306
			c-2.292-0.344-4.621-0.279-6.886,0.189c-0.229,0.046-0.439,0.103-0.65,0.146c-0.433,0.112-0.869,0.234-1.293,0.369
			c-1.527,0.5-2.982,1.194-4.33,2.065c-1.229,0.799-2.369,1.723-3.406,2.757c-0.515,0.511-1.016,1.049-1.505,1.605
			c-0.483,0.547-0.962,1.127-1.422,1.708c-1.37,1.752-5.167,7.188-5.167,7.188L53.219,36.601l-17.771-5.743l-0.009-18.594
			L53.17,6.466l6.57,9.011l2.78-0.493l1.572-2.206L55.101,0.459L32.911,7.712z"/>
	</defs>
	<clipPath id="SVGID_2_">
		<use xlink:href="#SVGID_1_"  overflow="visible"/>
	</clipPath>
	
		<radialGradient id="SVGID_3_" cx="-61.0703" cy="123.1836" r="0.637" gradientTransform="matrix(83.1965 0 0 83.1965 5147.665 -10241.25)" gradientUnits="userSpaceOnUse">
		<stop  offset="0" style="stop-color:#E6ECF6"/>
		<stop  offset="0.4106" style="stop-color:#3A8DB8"/>
		<stop  offset="1" style="stop-color:#10253F"/>
	</radialGradient>
	<rect x="30.333" y="0.459" clip-path="url(#SVGID_2_)" fill="url(#SVGID_3_)" width="77.951" height="42.233"/>
</g>
<g>
	<defs>
		<path id="SVGID_4_" d="M102.948,20.573c0.103,1.031,0.103,2.071,0,3.104c-0.011,0.068-0.011,0.132-0.022,0.2
			c0,0.033-0.008,0.055-0.008,0.089c-0.015,0.033-0.015,0.078-0.024,0.11l-0.034,0.203c-0.079,0.568-0.179,1.139-0.314,1.696
			c-0.13,0.56-0.29,1.111-0.476,1.653c-0.093,0.257-0.19,0.513-0.306,0.771c-0.302,0.747-0.654,1.47-1.062,2.164
			c-0.276,0.47-0.565,0.927-0.89,1.372c-0.257,0.357-0.525,0.717-0.815,1.05c-0.123,0.168-0.258,0.328-0.411,0.47
			c-0.272,0.326-0.565,0.633-0.871,0.927c-0.202,0.188-0.402,0.38-0.601,0.558c-0.36,0.314-0.718,0.604-1.086,0.884
			c-0.18,0.134-0.366,0.266-0.555,0.4c-0.061,0.043-0.118,0.085-0.183,0.122c-0.134,0.09-0.256,0.168-0.391,0.257
			c-0.123,0.088-0.254,0.166-0.389,0.233c-0.924,0.575-1.911,1.042-2.938,1.397c-0.331,0.123-0.666,0.222-1.013,0.321
			c-0.046,0.011-0.102,0.023-0.145,0.034c-0.357,0.102-0.716,0.19-1.083,0.256c-0.37,0.078-0.739,0.148-1.108,0.19
			c-1.05,0.152-2.117,0.194-3.178,0.124c-0.969-0.044-1.929-0.181-2.87-0.403c-0.299-0.065-0.593-0.143-0.892-0.222
			c-0.033-0.003-0.069-0.012-0.102-0.021c-0.289-0.092-0.569-0.182-0.858-0.28c-0.302-0.103-0.604-0.214-0.904-0.336
			c-0.279-0.11-0.548-0.225-0.815-0.347c-0.479-0.216-0.946-0.462-1.396-0.734c-0.212-0.125-0.423-0.257-0.635-0.394
			c-1.717-1.077-3.223-2.457-4.442-4.073l-0.017-0.011c-0.218-0.278-0.42-0.568-0.622-0.871c-0.144-0.21-0.624-1.07-0.624-1.07
			s-0.423-0.737-0.634-1.108c0.814,3.306,3.189,6.108,5.78,8.217c4.502,3.691,10.409,5.188,16.129,4.086
			c5.591-1.161,10.702-5.413,12.521-10.884c3.038-8.389-0.868-17.707-8.982-21.418C99.858,11.554,102.157,15.929,102.948,20.573"/>
	</defs>
	<clipPath id="SVGID_5_">
		<use xlink:href="#SVGID_4_"  overflow="visible"/>
	</clipPath>
	
		<radialGradient id="SVGID_6_" cx="-61.4746" cy="123.2129" r="0.6378" gradientTransform="matrix(26.4818 0 0 26.4818 1721.3854 -3238.1875)" gradientUnits="userSpaceOnUse">
		<stop  offset="0" style="stop-color:#E6ECF6"/>
		<stop  offset="0.5838" style="stop-color:#3A8DB8"/>
		<stop  offset="1" style="stop-color:#10253F"/>
	</radialGradient>
	<rect x="70.236" y="9.289" clip-path="url(#SVGID_5_)" fill="url(#SVGID_6_)" width="37.469" height="33.403"/>
</g>
<g>
	<defs>
		<path id="SVGID_7_" d="M84.178,2.501c-0.229,0.046-0.439,0.103-0.65,0.146c-0.433,0.112-0.869,0.234-1.293,0.369
			c-1.527,0.5-2.982,1.194-4.33,2.065c-1.229,0.799-2.369,1.723-3.406,2.757c-0.515,0.511-1.016,1.049-1.505,1.605
			c-0.483,0.547-0.962,1.127-1.422,1.708c-1.37,1.752-5.167,7.188-5.167,7.188L51.662,38.767l-21.297-6.888l0.044,2.713
			c0,0,15.079,4.901,17.815,5.781c0.97,0.312,1.931,0.626,2.891,0.94c0.041,0.008,0.081,0.023,0.122,0.042
			c0.347,0.145,1.316,0.413,1.316,0.413l19.354-26.564c0,0,3.07-3.984,4.641-5.626c3.375-3.649,8.082-5.779,13.052-5.902
			c8.896-0.135,16.551,6.339,18.361,14.956c-0.104-0.702-0.257-1.397-0.46-2.075c-0.101-0.347-0.2-0.682-0.312-1.016
			c-0.112-0.336-0.234-0.669-0.37-1.005c-1.317-3.287-3.515-6.148-6.348-8.27c-0.395-0.302-0.79-0.581-1.207-0.849
			c-0.413-0.269-0.828-0.514-1.263-0.749c0-0.01-1.419-0.75-2.187-1.049c-1.531-0.608-3.127-1.047-4.753-1.306
			c-0.968-0.144-1.943-0.216-2.917-0.216C86.817,2.096,85.484,2.23,84.178,2.501"/>
	</defs>
	<clipPath id="SVGID_8_">
		<use xlink:href="#SVGID_7_"  overflow="visible"/>
	</clipPath>
	
		<radialGradient id="SVGID_9_" cx="-61.0498" cy="123.1816" r="0.6382" gradientTransform="matrix(61.7658 0 0 61.7658 3837.9272 -7594.2813)" gradientUnits="userSpaceOnUse">
		<stop  offset="0" style="stop-color:#E6ECF6"/>
		<stop  offset="0.4106" style="stop-color:#3A8DB8"/>
		<stop  offset="1" style="stop-color:#10253F"/>
	</radialGradient>
	<rect x="30.365" y="2.096" clip-path="url(#SVGID_8_)" fill="url(#SVGID_9_)" width="77.597" height="39.673"/>
</g>
<g>
	<defs>
		<path id="SVGID_10_" d="M89.601,3.676c-4.97,0.124-9.677,2.253-13.052,5.902c-1.57,1.642-4.64,5.626-4.64,5.626L52.554,41.769
			l4.42-1.662c0,0,10.001-13.761,13.308-18.305c3.569-4.901,6.815-10.638,12.68-13.015c8.612-3.493,18.549,1.674,21.675,10.178
			c1.599,4.475,1.313,9.405-0.795,13.663c-2.152,4.375-6.073,7.064-10.512,8.686c8.766-2.359,14.887-10.275,14.954-19.356
			c-0.002-0.998-0.087-1.997-0.255-2.979c-0.023-0.113-0.034-0.235-0.066-0.347c-1.791-8.529-9.313-14.958-18.092-14.958
			C89.78,3.673,89.69,3.673,89.601,3.676"/>
	</defs>
	<clipPath id="SVGID_11_">
		<use xlink:href="#SVGID_10_"  overflow="visible"/>
	</clipPath>
	
		<radialGradient id="SVGID_12_" cx="-61.1074" cy="123.1777" r="0.6377" gradientTransform="matrix(43.8489 0 0 43.8489 2753.855 -5381.0938)" gradientUnits="userSpaceOnUse">
		<stop  offset="0" style="stop-color:#E6ECF6"/>
		<stop  offset="0.4106" style="stop-color:#3A8DB8"/>
		<stop  offset="1" style="stop-color:#10253F"/>
	</radialGradient>
	<rect x="52.554" y="3.673" clip-path="url(#SVGID_11_)" fill="url(#SVGID_12_)" width="55.729" height="38.096"/>
</g>
<g>
	<defs>
		<path id="SVGID_13_" d="M89.945,36.457c-6.798,0.646-13.519-6.054-16.041-10.017c-0.029-0.045-0.121-0.175-0.121-0.175
			l-2.913,4.131c0,0,0.48,0.86,0.624,1.07c0.202,0.303,0.404,0.593,0.622,0.871l0.017,0.011c1.22,1.618,2.726,2.996,4.442,4.073
			c0.212,0.137,0.423,0.269,0.635,0.394c0.449,0.272,0.917,0.519,1.396,0.734c0.268,0.122,0.536,0.236,0.815,0.347
			c0.3,0.122,0.603,0.233,0.904,0.336c0.289,0.099,0.569,0.188,0.858,0.28c0.032,0.009,0.068,0.018,0.102,0.021
			c0.299,0.079,0.593,0.156,0.892,0.222c0.941,0.223,1.901,0.359,2.87,0.403c1.061,0.07,2.128,0.028,3.178-0.124
			c0.369-0.042,0.738-0.112,1.108-0.19c0.367-0.065,0.726-0.154,1.083-0.256c0.043-0.011,0.099-0.021,0.145-0.034
			c0.347-0.1,0.682-0.198,1.013-0.321c1.024-0.361,2.01-0.832,2.938-1.397c0.135-0.067,0.266-0.146,0.389-0.233
			c0.135-0.089,0.257-0.167,0.391-0.257c0.064-0.037,0.122-0.078,0.183-0.122c0.188-0.135,0.375-0.267,0.555-0.4
			c0.368-0.279,0.726-0.569,1.086-0.884c0.198-0.178,0.398-0.37,0.601-0.558c0.306-0.294,0.599-0.601,0.871-0.927
			c0.153-0.142,0.288-0.302,0.411-0.47c0.29-0.333,0.559-0.689,0.815-1.047c0.324-0.448,0.613-0.905,0.89-1.375
			c0.407-0.694,0.76-1.417,1.062-2.164c0.115-0.258,0.213-0.514,0.306-0.771c0.186-0.542,0.346-1.093,0.476-1.653
			c0.136-0.557,0.235-1.127,0.314-1.696C101.655,30.841,96.643,35.809,89.945,36.457"/>
	</defs>
	<clipPath id="SVGID_14_">
		<use xlink:href="#SVGID_13_"  overflow="visible"/>
	</clipPath>
	
		<radialGradient id="SVGID_15_" cx="-61.2891" cy="123.0645" r="0.6378" gradientTransform="matrix(19.5667 0 0 19.5667 1282.327 -2375.5156)" gradientUnits="userSpaceOnUse">
		<stop  offset="0" style="stop-color:#E6ECF6"/>
		<stop  offset="0.4106" style="stop-color:#3A8DB8"/>
		<stop  offset="1" style="stop-color:#10253F"/>
	</radialGradient>
	<rect x="70.87" y="24.279" clip-path="url(#SVGID_14_)" fill="url(#SVGID_15_)" width="31.989" height="14.949"/>
</g>
<g>
	<defs>
		<polygon id="SVGID_16_" points="32.911,7.712 32.914,10.366 32.909,10.403 32.911,13.088 32.916,19.076 32.926,30.043 
			35.448,30.858 35.439,12.262 35.438,9.577 56.661,2.599 55.101,0.459 		"/>
	</defs>
	<clipPath id="SVGID_17_">
		<use xlink:href="#SVGID_16_"  overflow="visible"/>
	</clipPath>
	
		<radialGradient id="SVGID_18_" cx="-60.4658" cy="123.4521" r="0.6377" gradientTransform="matrix(27.6053 0 0 27.6053 1713.8151 -3395.7813)" gradientUnits="userSpaceOnUse">
		<stop  offset="0" style="stop-color:#E6ECF6"/>
		<stop  offset="0.4106" style="stop-color:#3A8DB8"/>
		<stop  offset="1" style="stop-color:#10253F"/>
	</radialGradient>
	<rect x="32.909" y="0.459" clip-path="url(#SVGID_17_)" fill="url(#SVGID_18_)" width="23.752" height="30.399"/>
</g>
<g>
	<defs>
		<polygon id="SVGID_19_" points="30.335,11.2 30.333,11.207 30.367,31.878 51.655,38.756 53.219,36.601 32.918,30.042 
			32.914,10.366 32.911,7.712 		"/>
	</defs>
	<clipPath id="SVGID_20_">
		<use xlink:href="#SVGID_19_"  overflow="visible"/>
	</clipPath>
	
		<radialGradient id="SVGID_21_" cx="-60.1006" cy="122.9346" r="0.638" gradientTransform="matrix(20.0238 6.4701 -6.4701 20.0238 2038.2233 -2048.4075)" gradientUnits="userSpaceOnUse">
		<stop  offset="0" style="stop-color:#E6ECF6"/>
		<stop  offset="0.4106" style="stop-color:#3A8DB8"/>
		<stop  offset="1" style="stop-color:#10253F"/>
	</radialGradient>
	<polygon clip-path="url(#SVGID_20_)" fill="url(#SVGID_21_)" points="21.25,35.822 51.056,45.451 62.302,10.647 32.497,1.017 	"/>
</g>
<g>
	<defs>
		<polygon id="SVGID_22_" points="35.435,9.575 35.435,12.265 55.697,5.634 55.705,5.643 62.52,14.983 64.092,12.778 58.269,4.797 
			56.659,2.601 		"/>
	</defs>
	<clipPath id="SVGID_23_">
		<use xlink:href="#SVGID_22_"  overflow="visible"/>
	</clipPath>
	
		<radialGradient id="SVGID_24_" cx="-60.2051" cy="123.8516" r="0.6379" gradientTransform="matrix(17.3066 0 0 17.3066 1091.5736 -2134.5625)" gradientUnits="userSpaceOnUse">
		<stop  offset="0" style="stop-color:#E6ECF6"/>
		<stop  offset="0.5838" style="stop-color:#3A8DB8"/>
		<stop  offset="1" style="stop-color:#10253F"/>
	</radialGradient>
	<rect x="35.435" y="2.601" clip-path="url(#SVGID_23_)" fill="url(#SVGID_24_)" width="28.657" height="12.383"/>
</g>
<g>
	<defs>
		<polygon id="SVGID_25_" points="53.17,6.466 59.74,15.477 62.52,14.983 55.705,5.643 55.697,5.634 		"/>
	</defs>
	<clipPath id="SVGID_26_">
		<use xlink:href="#SVGID_25_"  overflow="visible"/>
	</clipPath>
	
		<radialGradient id="SVGID_27_" cx="-59.6885" cy="124.707" r="0.6375" gradientTransform="matrix(8.1459 0 0 8.1459 543.7549 -1005.2891)" gradientUnits="userSpaceOnUse">
		<stop  offset="0" style="stop-color:#E6ECF6"/>
		<stop  offset="0.4106" style="stop-color:#3A8DB8"/>
		<stop  offset="1" style="stop-color:#10253F"/>
	</radialGradient>
	<rect x="53.17" y="5.634" clip-path="url(#SVGID_26_)" fill="url(#SVGID_27_)" width="9.35" height="9.843"/>
</g>
<g>
	<defs>
		<polygon id="SVGID_28_" points="72.102,26.757 70.229,29.295 70.87,30.396 73.783,26.265 		"/>
	</defs>
	<clipPath id="SVGID_29_">
		<use xlink:href="#SVGID_28_"  overflow="visible"/>
	</clipPath>
	
		<radialGradient id="SVGID_30_" cx="-60.6426" cy="123.6484" r="0.6384" gradientTransform="matrix(6.0599 0 0 6.0599 439.3763 -722.3711)" gradientUnits="userSpaceOnUse">
		<stop  offset="0" style="stop-color:#E6ECF6"/>
		<stop  offset="0.4106" style="stop-color:#3A8DB8"/>
		<stop  offset="1" style="stop-color:#10253F"/>
	</radialGradient>
	<rect x="70.229" y="26.265" clip-path="url(#SVGID_29_)" fill="url(#SVGID_30_)" width="3.554" height="4.131"/>
</g>
<path fill="#0D243E" d="M0,57.625C0,51.053,5.084,46.19,11.978,46.19c6.894,0,11.979,4.829,11.979,11.435
	c0,6.612-5.085,11.44-11.979,11.44C5.084,69.065,0,64.205,0,57.625 M19.794,57.625c0.133-4.179-3.153-7.679-7.335-7.812
	c-0.16-0.008-0.319-0.008-0.481,0c-4.315,0.001-7.813,3.502-7.81,7.82c0.002,4.313,3.497,7.807,7.81,7.808
	c4.184,0.134,7.684-3.149,7.817-7.334C19.799,57.948,19.799,57.788,19.794,57.625"/>
<path fill="#0D243E" d="M42.003,68.748l-4.544-6.512c-0.285,0.023-0.571,0.035-0.859,0.029h-5.018v6.482h-4.131v-22.24h9.149
	c5.846,0,9.467,2.986,9.467,7.913c0.141,3.126-1.78,5.975-4.732,7.02l5.114,7.308H42.003z M36.411,50.004h-4.828v8.864h4.828
	c3.621,0,5.496-1.655,5.496-4.447C41.907,51.622,40.032,50.004,36.411,50.004"/>
<path fill="#0D243E" d="M47.912,66.398l1.431-3.213c2.119,1.583,4.694,2.443,7.337,2.446c3.463,0,4.924-1.235,4.924-2.888
	c0-4.797-13.216-1.653-13.216-9.911c0-3.595,2.86-6.643,8.959-6.643c2.603-0.041,5.165,0.64,7.404,1.972l-1.304,3.207
	c-1.857-1.106-3.97-1.71-6.13-1.745c-3.434,0-4.831,1.332-4.831,3.016c0,4.737,13.184,1.653,13.184,9.816
	c0,3.561-2.89,6.61-8.99,6.61C53.219,69.066,49.756,67.984,47.912,66.398"/>
<path fill="#0D243E" d="M80.889,53.037h0.934v4.995c-1.313,1.158-3.016,1.771-4.766,1.714c-4.021,0-6.974-2.877-6.974-6.766
	c0-3.888,2.952-6.767,6.992-6.767c1.785-0.073,3.521,0.586,4.804,1.829l-0.61,0.648c-1.113-1.08-2.624-1.653-4.176-1.583
	c-3.242,0.114-5.778,2.832-5.664,6.074c0.113,3.245,2.832,5.781,6.074,5.669c1.227-0.043,2.41-0.473,3.386-1.218V53.037z"/>
<path fill="#0D243E" d="M94.499,59.651l-3.185-4.46c-0.429,0.063-0.861,0.093-1.292,0.095h-3.815v4.365h-0.974V46.308h4.789
	c3.352,0,5.372,1.678,5.372,4.499c0.095,1.961-1.217,3.715-3.125,4.175l3.335,4.67H94.499z M90.022,54.431
	c2.856,0,4.381-1.336,4.381-3.624c0-2.306-1.524-3.621-4.381-3.621h-3.815v7.245H90.022z"/>
<path fill="#0D243E" d="M97.323,52.98c-0.053-3.689,2.896-6.719,6.584-6.771c0.12-0.001,0.236,0,0.352,0.005
	c3.964,0,6.939,2.875,6.939,6.767c0,3.889-2.976,6.766-6.939,6.766c-3.688,0.144-6.791-2.728-6.933-6.416
	C97.323,53.213,97.318,53.097,97.323,52.98 M110.208,52.98c0.046-3.289-2.581-5.995-5.874-6.043
	c-3.288-0.046-5.992,2.581-6.042,5.871c-0.047,3.288,2.582,5.994,5.872,6.043c0.029,0,0.064,0,0.095,0
	c3.18,0.104,5.844-2.395,5.942-5.572C110.208,53.177,110.209,53.079,110.208,52.98"/>
<path fill="#0D243E" d="M113.696,53.992v-7.685h0.971v7.646c0,3.334,1.603,4.897,4.386,4.897c2.782,0,4.364-1.563,4.364-4.897
	v-7.646h0.975v7.685c0,3.809-2.042,5.754-5.358,5.754C115.716,59.746,113.696,57.801,113.696,53.992"/>
<path fill="#0D243E" d="M138.135,50.807c0,2.801-2.02,4.479-5.376,4.479h-3.813v4.365h-0.972V46.308h4.784
	C136.115,46.308,138.135,47.985,138.135,50.807 M137.144,50.807c0-2.305-1.525-3.621-4.385-3.621h-3.813v7.224h3.813
	C135.618,54.409,137.144,53.095,137.144,50.807"/>
<path fill="#0D243E" d="M73.288,68.213h-2.119l-0.438,0.966h-0.587l1.807-3.864h0.56l1.812,3.864h-0.597L73.288,68.213z
	 M73.09,67.769l-0.859-1.893l-0.86,1.893H73.09z"/>
<path fill="#0D243E" d="M81.192,66.658c0,0.843-0.626,1.349-1.662,1.349h-0.982v1.172h-0.571v-3.863h1.554
	C80.566,65.315,81.192,65.823,81.192,66.658 M80.622,66.658c0-0.549-0.379-0.863-1.11-0.863h-0.964v1.731h0.964
	C80.243,67.526,80.622,67.213,80.622,66.658"/>
<path fill="#0D243E" d="M88.361,66.658c0,0.843-0.623,1.349-1.661,1.349h-0.986v1.172h-0.567v-3.863H86.7
	C87.738,65.315,88.361,65.823,88.361,66.658 M87.795,66.658c0-0.549-0.383-0.863-1.112-0.863h-0.966v1.731h0.966
	c0.729,0,1.109-0.313,1.109-0.868H87.795z"/>
<polygon fill="#0D243E" points="92.316,65.315 92.885,65.315 92.885,68.697 95.042,68.697 95.042,69.179 92.316,69.179 "/>
<rect x="98.757" y="65.315" fill="#0D243E" width="0.573" height="3.863"/>
<polygon fill="#0D243E" points="106.475,68.697 106.475,69.179 103.583,69.179 103.583,65.315 106.396,65.315 106.396,65.795 
	104.152,65.795 104.152,66.981 106.151,66.981 106.151,67.45 104.152,67.45 104.152,68.697 "/>
<path fill="#0D243E" d="M110.457,65.315h1.679c1.067-0.117,2.025,0.653,2.141,1.721c0.116,1.069-0.654,2.024-1.722,2.143
	c-0.138,0.014-0.279,0.014-0.419,0h-1.679V65.315z M112.103,68.697c0.802,0.085,1.521-0.493,1.609-1.294
	c0.087-0.802-0.491-1.521-1.295-1.608c-0.104-0.012-0.208-0.012-0.314,0h-1.074v2.902H112.103z"/>
<path fill="#0D243E" d="M126.882,68.213h-2.115l-0.442,0.966h-0.583l1.807-3.864h0.559l1.813,3.864h-0.599L126.882,68.213z
	 M126.684,67.769l-0.86-1.893l-0.86,1.893H126.684z"/>
<path fill="#0D243E" d="M129.704,68.83c-0.002-0.207,0.168-0.375,0.375-0.375c0.003,0,0.008,0,0.014,0
	c0.201-0.007,0.371,0.157,0.374,0.359c0.001,0.007,0.001,0.009,0,0.016c0.003,0.206-0.159,0.375-0.366,0.38
	c-0.003,0-0.007,0-0.008,0c-0.212,0.006-0.388-0.162-0.389-0.373C129.704,68.836,129.702,68.832,129.704,68.83"/>
<rect x="132.861" y="65.315" fill="#0D243E" width="0.57" height="3.863"/>
<path fill="#0D243E" d="M135.818,68.83c0-0.207,0.171-0.375,0.378-0.375c0.005,0,0.008,0,0.015,0
	c0.201-0.007,0.369,0.157,0.374,0.359v0.016c0.003,0.206-0.159,0.375-0.369,0.38c-0.002,0-0.003,0-0.005,0
	c-0.212,0.006-0.385-0.162-0.39-0.373C135.821,68.836,135.818,68.832,135.818,68.83"/>
<line fill="none" x1="-10.809" y1="90.916" x2="-10.809" y2="-23.874"/>
</svg>
